{"title":"A New Love Ishtory 2013 Hindi Movies HDDVD xviD 5.1 with Sample ","uid":9268668,"size":736022782,"categoryP":"video","categoryS":"movies","magnet":"?xt=urn:btih:7ee9b793c337a84d3b39c488338f3898b16d105e&amp;dn=A+New+Love+Ishtory+2013+Hindi+Movies+HDDVD+xviD+5.1+with+Sample+&amp;tr=udp%3A%2F%2Ftracker.openbittorrent.com%3A80&amp;tr=udp%3A%2F%2Fopen.demonii.com%3A1337&amp;tr=udp%3A%2F%2Ftracker.coppersurfer.tk%3A6969&amp;tr=udp%3A%2F%2Fexodus.desync.com%3A6969","seeders":1,"leechers":2,"uploader":"basicssom","files":2,"time":1385738124,"description":" &lt;a href=&quot;http://s5.postimg.org/hgeuxszk7/logo.png&quot; rel=&quot;nofollow&quot; target=&quot;_NEW&quot;&gt;http://s5.postimg.org/hgeuxszk7/logo.png&lt;/a&gt;\n\nA New Love Ishtory 2013 Hindi Movies HDDVD xviD 5.1 with Sample ~ â˜»rDXâ˜»\n\nPlease check SCREEN SHOTS first :\n &lt;a href=&quot;\nhttp://imageshere.co.nr/2013/12/ANewLoveIshtory/1.html&quot; rel=&quot;nofollow&quot; target=&quot;_NEW&quot;&gt;\nhttp://imageshere.co.nr/2013/12/ANewLoveIshtory/1.html&lt;/a&gt;\n &lt;a href=&quot;\nhttp://imageshere.co.nr/2013/12/ANewLoveIshtory/2.html&quot; rel=&quot;nofollow&quot; target=&quot;_NEW&quot;&gt;\nhttp://imageshere.co.nr/2013/12/ANewLoveIshtory/2.html&lt;/a&gt;\n &lt;a href=&quot;\nhttp://imageshere.co.nr/2013/12/ANewLoveIshtory/3.html&quot; rel=&quot;nofollow&quot; target=&quot;_NEW&quot;&gt;\nhttp://imageshere.co.nr/2013/12/ANewLoveIshtory/3.html&lt;/a&gt;\n &lt;a href=&quot;\nhttp://imageshere.co.nr/2013/12/ANewLoveIshtory/4.html&quot; rel=&quot;nofollow&quot; target=&quot;_NEW&quot;&gt;\nhttp://imageshere.co.nr/2013/12/ANewLoveIshtory/4.html&lt;/a&gt;\n &lt;a href=&quot;\nhttp://imageshere.co.nr/2013/12/ANewLoveIshtory/5.html&quot; rel=&quot;nofollow&quot; target=&quot;_NEW&quot;&gt;\nhttp://imageshere.co.nr/2013/12/ANewLoveIshtory/5.html&lt;/a&gt;\n &lt;a href=&quot;\nhttp://imageshere.co.nr/2013/12/ANewLoveIshtory/6.html&quot; rel=&quot;nofollow&quot; target=&quot;_NEW&quot;&gt;\nhttp://imageshere.co.nr/2013/12/ANewLoveIshtory/6.html&lt;/a&gt;\n\nAll rDX torrents are Seeding From the 1Gbps Seedbox 24X7\n\nFormat                                   : AVI\nFormat/Info                              : Audio Video Interleave\nFile size                                : 695 MiB\nDuration                                 : 2h 2mn\nOverall bit rate mode                    : Variable\nOverall bit rate                         : 793 Kbps\n\nVideo\nID                                       : 0\nFormat                                   : MPEG-4 Visual\nFormat profile                           : Advanced Simple@L5\nFormat settings, BVOP                    : 2\nFormat settings, QPel                    : No\nFormat settings, GMC                     : No warppoints\nFormat settings, Matrix                  : Default (H.263)\nCodec ID                                 : XVID\nCodec ID/Hint                            : XviD\nDuration                                 : 2h 2mn\nBit rate                                 : 704 Kbps\nWidth                                    : 640 pixels\nHeight                                   : 336 pixels\nDisplay aspect ratio                     : 1.905\nFrame rate                               : 25.000 fps\nColor space                              : YUV\nChroma subsampling                       : 4:2:0\nBit depth                                : 8 bits\nScan type                                : Progressive\nCompression mode                         : Lossy\nBits/(Pixel*Frame)                       : 0.131\nStream size                              : 616 MiB (89%)\nWriting library                          : XviD 1.2.1 (UTC 2008-12-04)\n\nAudio\nID                                       : 1\nFormat                                   : MPEG Audio\nFormat version                           : Version 1\nFormat profile                           : Layer 3\nMode                                     : Joint stereo\nMode extension                           : MS Stereo\nCodec ID                                 : 55\nCodec ID/Hint                            : MP3\nDuration                                 : 2h 2mn\nBit rate mode                            : Variable\nBit rate                                 : 80.0 Kbps\nChannel(s)                               : 6 channels\nSampling rate                            : 32.0 KHz\nCompression mode                         : Lossy\nStream size                              : 69.6 MiB (10%)\nAlignment                                : Aligned on interleaves\nInterleave, duration                     : 36 ms (0.90 video frame)\nInterleave, preload duration             : 152 ms\nTitle                                    : ANLI  2ch 48 80  DELAY 0ms\nWriting library                          : LAME3.99r\nEncoding settings                        : -m j -V 4 -q 2 -lowpass 13.5 --abr 80\n\n","torrent":{"xt":"urn:btih:7ee9b793c337a84d3b39c488338f3898b16d105e","amp;dn":"A+New+Love+Ishtory+2013+Hindi+Movies+HDDVD+xviD+5.1+with+Sample+","amp;tr":["udp%3A%2F%2Ftracker.openbittorrent.com%3A80","udp%3A%2F%2Fopen.demonii.com%3A1337","udp%3A%2F%2Ftracker.coppersurfer.tk%3A6969","udp%3A%2F%2Fexodus.desync.com%3A6969"],"infoHash":"7ee9b793c337a84d3b39c488338f3898b16d105e","infoHashBuffer":{"type":"Buffer","data":[126,233,183,147,195,55,168,77,59,57,196,136,51,143,56,152,177,109,16,94]},"announce":[],"urlList":[]}}